<svg xmlns="http://www.w3.org/2000/svg" viewBox="0 0 32 32">
  <path d="M12.800781 3C11.036985 3 9.6296249 5.0832753 9.1152344 8.2597656L5.8007812 9.1992188L3.4003906 26.199219L19 29L28.599609 27.099609L25.5 7.0996094L22.699219 6.6992188L20.599609 5L19.431641 5.3320312C18.695913 3.8438173 17.659454 3 16.5 3C16.001696 3 15.296296 3.1453859 14.613281 3.8222656C14.079545 3.29588 13.473033 3 12.800781 3 z M 12.900391 5C13.165961 5 13.743502 5.4734923 14.150391 6.8300781L11.275391 7.6464844C11.727369 5.842949 12.501879 5 12.900391 5 z M 16.5 5C16.69148 5 17.04878 5.2854228 17.410156 5.9042969L16.03125 6.296875C15.922597 5.9804534 15.80502 5.6828 15.677734 5.4082031L15.800781 5.5C16.000781 5.2 16.3 5 16.5 5 z M 19.226562 7.359375L18.044922 26.820312L5.6992188 24.5L7.5996094 10.800781L19.226562 7.359375 z M 21.189453 7.9960938L21.800781 8.5L23.699219 8.8007812L26.300781 25.599609L20.048828 26.798828L21.189453 7.9960938 z M 14.5 11.900391C11.5 11.900391 10 13.800391 10 15.900391C10 18.400391 12.400391 18.400391 12.400391 19.900391C12.400391 20.300391 12.1 20.800781 11.5 20.800781C10.5 20.800781 9.4003906 19.800781 9.4003906 19.800781L8.8007812 21.699219C8.8007812 21.699219 9.8996094 23 12.099609 23C13.899609 23 15.199219 21.6 15.199219 19.5C15.199219 16.9 12.199219 16.400781 12.199219 15.300781C12.199219 15.100781 12.299609 14.300781 13.599609 14.300781C14.499609 14.300781 15.199219 14.699219 15.199219 14.699219L16 12.199219C16 12.199219 15.4 11.900391 14.5 11.900391 z" fill="#000000" />
</svg>