<?xml version="1.0" standalone="no"?>
<!DOCTYPE svg PUBLIC "-//W3C//DTD SVG 20010904//EN"
 "http://www.w3.org/TR/2001/REC-SVG-20010904/DTD/svg10.dtd">
<svg version="1.0" xmlns="http://www.w3.org/2000/svg"
 width="1080.000000pt" height="1082.000000pt" viewBox="0 0 1080.000000 1082.000000"
 preserveAspectRatio="xMidYMid meet">
<metadata>
Created by potrace 1.16, written by Peter Selinger 2001-2019
</metadata>
<g transform="translate(0.000000,1082.000000) scale(0.100000,-0.100000)"
fill="#000000" stroke="none">
<path d="M4766 10059 c-77 -21 -119 -125 -132 -325 -6 -105 -5 -113 15 -133
15 -15 21 -34 21 -63 0 -24 5 -59 10 -79 10 -35 40 -79 54 -79 4 0 22 -11 40
-25 18 -14 37 -25 42 -25 5 0 30 -11 56 -25 28 -15 54 -22 65 -18 28 9 100 42
188 84 44 21 101 43 127 49 52 13 70 29 86 78 17 50 27 162 15 162 -12 0 -23
-47 -23 -98 0 -31 -8 -43 -47 -79 -27 -24 -56 -45 -65 -49 -10 -3 -18 -10 -18
-15 0 -5 -7 -9 -16 -9 -9 0 -27 -9 -41 -20 -14 -11 -31 -20 -38 -20 -6 0 -26
-7 -43 -15 -17 -9 -56 -21 -86 -27 -65 -14 -134 -1 -176 33 -14 11 -33 22 -42
26 -23 7 -24 70 -3 100 8 12 56 42 107 68 138 70 148 78 148 130 0 53 -24 180
-42 220 -42 96 -140 171 -202 154z"/>
<path d="M5670 9839 c0 -33 -59 -144 -104 -197 -69 -80 -125 -122 -165 -122
-12 0 -21 -10 -25 -26 -9 -35 -5 -37 35 -20 43 18 145 128 230 248 29 40 30
14 2 -57 -23 -56 -39 -78 -93 -126 -86 -77 -162 -124 -235 -146 -51 -15 -71
-29 -133 -91 -73 -73 -137 -111 -287 -171 -81 -32 -84 -37 -30 -44 31 -5 55
-2 73 7 15 8 52 21 83 30 35 10 78 34 115 64 95 76 206 157 244 178 19 10 37
21 40 24 69 66 81 74 90 60 31 -49 -9 -96 -111 -129 -58 -20 -144 -70 -169
-100 -3 -3 -24 -19 -48 -35 -23 -16 -41 -30 -40 -32 6 -5 165 26 228 45 36 11
83 23 105 28 28 6 41 14 43 28 11 76 37 165 46 162 7 -3 18 25 29 73 14 62 25
85 52 113 30 31 36 46 45 109 11 74 6 143 -11 154 -5 3 -9 -9 -9 -27z"/>
<path d="M4530 9477 c0 -19 -11 -56 -25 -83 -14 -27 -25 -59 -25 -72 0 -24 31
-71 86 -130 28 -31 32 -32 57 -21 22 10 26 17 22 41 -3 16 -12 39 -19 51 -8
12 -30 73 -51 135 -20 61 -39 112 -41 112 -2 0 -4 -15 -4 -33z"/>
<path d="M5395 9130 c-38 -22 -92 -47 -120 -56 -27 -9 -54 -19 -60 -23 -5 -3
-14 -6 -20 -7 -179 -37 -278 -45 -405 -33 -64 6 -116 6 -131 1 -17 -7 21 -11
133 -17 86 -4 160 -5 165 -2 5 3 46 8 92 11 89 6 148 20 276 61 115 38 142 53
148 81 2 13 1 24 -2 24 -3 0 -37 -18 -76 -40z"/>
<path d="M5350 9034 c-52 -13 -129 -35 -170 -48 -111 -36 -164 -46 -280 -55
-58 -5 -88 -9 -67 -10 21 0 48 -8 60 -16 12 -8 58 -23 102 -33 44 -11 107 -30
141 -42 l61 -23 119 38 c65 21 124 42 130 47 7 5 15 25 18 44 7 37 -2 124 -13
124 -3 -1 -49 -12 -101 -26z"/>
<path d="M4689 8686 c-2 -2 -60 -9 -129 -15 -112 -9 -136 -15 -235 -56 -121
-49 -169 -55 -250 -30 -27 8 -51 12 -54 9 -2 -2 9 -19 26 -37 16 -17 46 -49
66 -71 l35 -38 61 36 c65 38 235 107 371 151 125 40 159 54 134 54 -11 1 -23
-1 -25 -3z"/>
<path d="M3370 8623 c-36 -24 -71 -43 -77 -43 -7 0 -13 -3 -13 -8 0 -4 -42
-22 -92 -41 -51 -18 -100 -36 -108 -41 -9 -4 -39 -11 -68 -15 -29 -4 -50 -10
-48 -13 2 -4 -32 -8 -76 -9 -43 -2 -87 -7 -96 -13 -27 -16 185 -3 248 15 30 9
64 19 75 22 11 3 29 12 40 20 11 7 28 13 38 13 18 0 18 -1 3 -25 -9 -14 -14
-25 -12 -25 7 0 75 45 106 70 14 11 28 20 33 20 17 0 3 -23 -49 -79 -55 -60
-64 -84 -14 -38 14 12 39 32 55 44 46 32 105 90 105 103 0 6 6 10 12 8 7 -3
19 1 26 9 12 11 11 18 -5 41 l-18 28 -65 -43z"/>
<path d="M5370 8582 c-144 -62 -376 -178 -431 -215 -19 -12 -56 -36 -84 -51
-27 -16 -52 -32 -55 -35 -6 -8 -58 -44 -138 -98 -70 -48 -109 -54 -180 -29
-37 13 -45 13 -92 -5 -180 -68 -399 -5 -590 171 -30 28 -80 76 -111 107 -52
50 -58 54 -80 43 -19 -11 -20 -14 -8 -24 8 -6 25 -26 38 -44 13 -18 48 -46 81
-62 32 -16 102 -63 156 -104 91 -68 107 -76 199 -101 82 -21 106 -32 136 -61
34 -33 39 -35 81 -29 35 5 48 3 62 -10 13 -14 27 -16 76 -10 45 5 65 3 87 -9
15 -9 51 -19 78 -24 l50 -8 49 86 c35 60 76 112 143 178 51 50 98 92 103 92 6
0 28 11 49 25 55 37 175 85 385 156 l185 62 -15 29 c-8 15 -20 28 -27 28 -6 0
-73 -27 -147 -58z"/>
<path d="M5455 8395 c-16 -14 -72 -41 -124 -61 -86 -34 -101 -44 -184 -124
-90 -87 -100 -110 -51 -110 21 0 24 5 24 34 0 26 8 41 39 69 49 45 145 98 246
136 99 39 164 48 215 31 43 -14 72 -8 64 13 -3 8 -14 12 -28 10 -12 -3 -49 3
-83 11 -78 20 -82 20 -118 -9z"/>
<path d="M5255 7680 c-3 -5 -1 -10 4 -10 6 0 33 -11 60 -24 27 -13 71 -27 98
-30 26 -4 62 -12 78 -19 l30 -12 -45 -5 -45 -6 55 -12 c119 -28 228 -43 295
-42 90 3 95 2 95 -10 0 -5 -6 -10 -12 -10 -7 0 -31 -12 -53 -26 l-40 -26 63 6
c35 3 91 13 124 21 33 9 70 15 82 13 36 -6 -238 -128 -288 -128 -8 0 -18 -4
-21 -10 -8 -13 65 -3 190 25 146 34 275 81 290 105 4 6 10 8 15 5 4 -3 27 6
50 19 l42 24 35 -24 c20 -13 39 -21 44 -18 5 3 -27 30 -72 60 -56 37 -85 51
-93 45 -7 -6 -75 -17 -151 -26 -254 -30 -480 1 -743 101 -70 27 -78 28 -87 14z"/>
<path d="M5026 7663 c-3 -3 15 -19 39 -35 25 -17 46 -35 46 -41 1 -7 2 -19 3
-27 0 -8 9 -14 18 -14 10 1 16 -1 14 -5 -3 -4 12 -18 32 -31 20 -13 47 -32 59
-43 12 -11 26 -16 32 -13 6 4 9 1 6 -7 -3 -7 5 -19 20 -27 14 -7 25 -21 25
-30 0 -20 99 -70 138 -70 22 1 19 4 -21 20 -27 10 -54 23 -61 29 -7 6 -17 7
-21 3 -5 -4 -5 -2 -1 5 3 6 2 14 -3 18 -6 3 -8 12 -5 19 3 9 -7 19 -25 27 -43
19 -40 39 7 40 l37 1 -45 12 c-25 6 -75 26 -112 44 -40 20 -73 30 -80 26 -7
-5 -5 3 4 18 18 27 9 46 -14 32 -6 -4 -9 -3 -6 2 7 10 -77 56 -86 47z"/>
<path d="M9049 6848 l-55 -21 42 -86 c23 -47 45 -93 48 -101 8 -20 23 -43 71
-109 22 -31 43 -63 47 -71 4 -8 7 -10 7 -4 1 7 -12 39 -29 72 -16 34 -30 68
-30 76 0 8 -4 17 -9 20 -5 3 -12 22 -16 42 -3 20 -14 48 -22 61 -13 20 -14 28
-3 51 l13 27 6 -25 c7 -28 46 -104 70 -136 9 -12 23 -32 31 -44 38 -56 42 -57
35 -15 -8 47 -8 45 -6 68 1 19 26 23 37 5 4 -7 3 -8 -4 -4 -42 26 46 -77 115
-134 81 -68 122 -100 129 -100 5 0 20 -9 34 -20 34 -26 45 -25 18 2 -37 37 -2
33 51 -6 27 -20 53 -36 59 -36 5 0 31 -12 56 -26 26 -15 49 -24 52 -22 8 9
-31 36 -121 83 -49 26 -102 57 -117 67 -16 11 -28 16 -28 11 0 -4 -5 0 -11 10
-5 9 -17 17 -24 17 -8 0 -15 3 -15 8 0 4 -27 27 -60 52 -64 46 -250 227 -250
243 0 8 -54 67 -60 66 -3 0 -30 -10 -61 -21z"/>
<path d="M9360 6250 c0 -17 20 -35 60 -52 58 -26 97 -37 106 -28 5 4 20 11 34
15 16 4 20 3 12 -3 -9 -6 8 -11 52 -16 35 -3 83 -13 106 -21 32 -11 47 -12 63
-4 12 7 43 9 79 5 38 -4 57 -2 53 4 -3 6 -15 10 -26 10 -10 0 -19 5 -19 10 0
14 -37 12 -43 -2 -4 -8 -6 -7 -6 3 -1 9 -10 19 -22 22 -15 4 -19 2 -15 -9 9
-24 -58 -7 -148 38 -53 25 -74 32 -63 20 27 -30 22 -42 -14 -32 -17 5 -37 14
-45 21 -8 7 -17 9 -21 5 -3 -3 -2 -6 4 -6 6 0 13 -8 15 -18 6 -20 6 -20 -69
-7 -12 2 -38 15 -57 30 -20 15 -36 22 -36 15z"/>
<path d="M6193 3918 c-60 -23 -133 -95 -133 -130 0 -37 20 -98 43 -133 23 -36
92 -75 187 -106 161 -52 200 -86 200 -174 0 -54 -26 -85 -88 -103 -96 -29
-204 -6 -260 55 -35 39 -52 39 -76 0 -9 -13 -2 -25 32 -60 52 -53 120 -77 219
-77 93 0 158 23 210 74 39 38 42 45 43 93 0 55 -24 123 -58 162 -28 31 -67 51
-182 91 -115 41 -164 70 -185 109 -22 43 -19 64 13 94 35 34 79 47 157 47 84
0 123 -14 170 -60 l41 -40 22 20 c12 12 22 24 22 28 0 4 -19 27 -43 50 -78 77
-222 103 -334 60z"/>
<path d="M6690 3900 l0 -40 100 0 c73 0 100 -3 101 -12 0 -7 0 -115 -1 -240
-1 -125 2 -268 6 -318 l7 -90 33 0 34 0 0 330 0 330 100 0 100 0 0 40 0 40
-240 0 -240 0 0 -40z"/>
<path d="M7510 3914 c-74 -42 -123 -110 -159 -223 -14 -43 -14 -204 0 -256 27
-104 87 -187 161 -226 49 -25 170 -26 219 -2 202 100 242 477 70 656 -76 80
-202 102 -291 51z m198 -68 c41 -21 76 -65 103 -126 20 -47 24 -71 24 -160 0
-93 -3 -112 -28 -164 -29 -63 -72 -111 -113 -126 -43 -17 -126 -12 -160 9 -42
25 -81 78 -105 141 -28 75 -26 216 5 292 28 68 61 111 101 131 38 20 138 21
173 3z"/>
<path d="M8170 3570 l0 -370 35 0 35 0 0 170 0 170 83 0 83 0 22 -42 c12 -24
36 -65 54 -93 17 -27 56 -89 85 -138 l55 -87 28 20 29 20 -44 73 c-24 39 -48
77 -53 83 -5 6 -13 20 -16 32 -4 12 -12 22 -17 22 -5 0 -9 5 -9 10 0 6 -11 28
-25 51 -14 22 -23 44 -20 49 3 5 25 14 48 21 52 14 82 41 108 98 49 112 -1
220 -125 263 -40 13 -84 17 -203 18 l-153 0 0 -370z m365 270 c92 -44 84 -183
-12 -209 -21 -6 -93 -11 -160 -11 l-123 0 0 120 0 120 127 0 c106 0 133 -3
168 -20z"/>
<path d="M8930 3565 l0 -375 228 0 228 0 1 35 1 35 -192 2 -191 3 -3 138 -3
137 116 0 115 0 0 41 0 40 -97 -1 c-54 -1 -106 -1 -115 -1 -16 1 -18 14 -18
121 l0 120 189 0 c181 0 190 1 196 20 3 11 3 29 0 40 -6 19 -15 20 -231 20
l-224 0 0 -375z"/>
</g>
</svg>
